<?xml version="1.0" encoding="utf-8"?>
<!-- Uploaded to: SVG Repo, www.svgrepo.com, Generator: SVG Repo Mixer Tools -->
<svg width="200px" height="200px" viewBox="-46.18 0 361.294 361.294" xmlns="http://www.w3.org/2000/svg"><defs><style>.a{fill:#ffffff;}.b{fill:#7a7473;}.c{fill:#211715;}.d{fill:#6dbf6b;}</style></defs><path class="a" d="M76.523,92.091c.579-10.924,9.43-43.634,58.4-43.634C193.463,48.457,191.5,95.5,191.5,95.5a8.57,8.57,0,0,1,6.857-2.007,8.094,8.094,0,0,1,5.818,3.868,11.437,11.437,0,0,1,1.2,4.6,34.285,34.285,0,0,1-3.5,18.173,21.794,21.794,0,0,1-5.634,7.395,14.447,14.447,0,0,1-6.718,3.028l-1.151.178c-.551,2.063-1.17,3.8-1.474,4.724-1.818,4.934-11.4,21.148-23.8,28.8a109.269,109.269,0,0,0,.76,11.221,151.148,151.148,0,0,0,7.506,13.422c3.762,5.852-4,32.9-38.222,32.9S87.085,195.6,95.369,188.754c7.7-6.371,9.253-13.65,9.253-13.72.381-3.555.631-7.461.717-10.619a52.743,52.743,0,0,1-13.567-11.829A58.3,58.3,0,0,1,80.661,130.9l-2.19-.334a14.443,14.443,0,0,1-6.718-3.028,21.8,21.8,0,0,1-5.635-7.395,34.285,34.285,0,0,1-3.495-18.173,11.435,11.435,0,0,1,1.2-4.6,8.1,8.1,0,0,1,5.818-3.868A8.569,8.569,0,0,1,76.5,95.5,31.678,31.678,0,0,1,76.523,92.091Z"/><path class="b" d="M118.329,3.05c-12.813,1.462-26,6.073-36.684,16.828l5.115,4.366c-8.719,5.387-15.565,15.824-18.711,25.062-3.7,10.869-4.807,26.337-.412,44.611l.032.134a8.022,8.022,0,0,1,1.969-.557A8.569,8.569,0,0,1,76.5,95.5l7.349-4.377.6-.36c15.538-14.54,24.2-20.56,38.127-31.5.085.97,3.19,8.732,3.916,9.027.895.364,9.872-5.185,17.177-9.7L156,60.091c5.664,1.239,10.979,4.316,15.766,8.435,8.484,7.3,15.307,17.872,19.467,27.276a8.391,8.391,0,0,1,7.127-2.308,8.063,8.063,0,0,1,1.494.372c4.261-10.946,4.885-26.8-.5-41.845-3.783-10.577-12.8-21.638-19.914-24.749l-8.4-5.983C162.808,10,149.075,3.081,131.5,2.544A91.771,91.771,0,0,0,118.329,3.05Z"/><path class="c" d="M193.2,97.2a6.085,6.085,0,0,1,8.536.787c1.206,1.585,1.283,3.851,1.346,5.754a30.719,30.719,0,0,1-.393,6.223c-1.309,7.59-5.34,16.84-13.8,18.285a2.419,2.419,0,0,0-1.677,2.952,2.456,2.456,0,0,0,2.953,1.676c8.53-1.456,13.618-9.419,16.045-17.089a36.059,36.059,0,0,0,1.63-12.935c-.253-4.208-1.463-8.182-5.326-10.4A11.067,11.067,0,0,0,189.805,93.8a2.421,2.421,0,0,0,0,3.394,2.45,2.45,0,0,0,3.394,0Z"/><path class="c" d="M187.038,124.181a28.71,28.71,0,0,1-1.344,7.223c-.272.918-.571,1.826-.876,2.733-.089.266-.174.534-.271.8-.028.077-.062.152-.089.229-.19.541.08-.17.007-.009a58.99,58.99,0,0,1-3.79,6.948A68.408,68.408,0,0,1,165.334,159.8a29.138,29.138,0,0,1-11.321,5.721c-3.01.69-1.736,5.319,1.276,4.628,8.541-1.959,15.688-8.12,21.32-14.56a73.323,73.323,0,0,0,11.849-17.669,37.246,37.246,0,0,0,3.38-13.736c.1-3.09-4.7-3.086-4.8,0Z"/><path class="c" d="M78.192,93.8a11.02,11.02,0,0,0-11.149-2.078c-4.128,1.632-6.2,5.09-6.727,9.378a35.007,35.007,0,0,0,6.131,24.222c2.8,3.785,6.656,6.741,11.386,7.549a2.47,2.47,0,0,0,2.952-1.676,2.419,2.419,0,0,0-1.676-2.952c-8.459-1.445-12.49-10.7-13.8-18.285a30.719,30.719,0,0,1-.393-6.223c.062-1.9.141-4.171,1.346-5.754A6.084,6.084,0,0,1,74.8,97.2a2.463,2.463,0,0,0,3.394,0,2.421,2.421,0,0,0,0-3.394Z"/><path class="c" d="M76.5,123.31a68.871,68.871,0,0,0,8.633,24.1c4.968,8.172,12.183,15.556,20.695,20.03a39.843,39.843,0,0,0,14.535,4.383,2.417,2.417,0,0,0,2.4-2.4,2.454,2.454,0,0,0-2.4-2.4c-17.283-1.785-30.737-17.269-36.157-32.843a76.746,76.746,0,0,1-3.078-12.141,2.42,2.42,0,0,0-2.952-1.676A2.454,2.454,0,0,0,76.5,123.31Z"/><path class="c" d="M178.232,29.345a27.263,27.263,0,0,1,8.663,6.8,53.11,53.11,0,0,1,7.781,11.184c4.6,8.786,6.423,19.164,6.113,29.02a53.132,53.132,0,0,1-2.495,14.767c-.956,2.945,3.677,4.207,4.629,1.276,3.137-9.668,3.354-20.192,1.612-30.149a58.555,58.555,0,0,0-12.953-28.02c-3.007-3.555-6.625-7.095-10.927-9.027a2.474,2.474,0,0,0-3.284.861,2.42,2.42,0,0,0,.861,3.284Z"/><path class="c" d="M90.9,19.578c-10.253,3.84-17.862,13.09-22.529,22.712C63.8,51.724,62.182,62.279,62.4,72.7a103.817,103.817,0,0,0,2.924,21.855c.715,3,5.344,1.732,4.628-1.276-4.738-19.9-4.421-42.718,9.306-59.149,3.484-4.171,7.767-7.992,12.923-9.923a2.467,2.467,0,0,0,1.676-2.953A2.419,2.419,0,0,0,90.9,19.578Z"/><path class="c" d="M173.12,20.078C165.326,9.49,153.477,3.089,140.6,1.021c-13.153-2.112-27.6-1-40.059,3.833A59.372,59.372,0,0,0,79.948,18.181c-2.189,2.186,1.205,5.581,3.394,3.394,9.292-9.282,21.59-14.523,34.547-16.073,12.26-1.467,25.443-.768,36.617,4.923A40.961,40.961,0,0,1,168.975,22.5a2.472,2.472,0,0,0,3.284.861,2.417,2.417,0,0,0,.861-3.283Z"/><path class="c" d="M146.158,54.237c-4.918,3.018-9.793,6.109-14.78,9.012-.975.568-1.956,1.129-2.95,1.663-.406.218-.814.433-1.228.637-.16.078-.321.152-.481.23-.44.215-.072.031-.035.019a1.128,1.128,0,0,0-.325.116c-.15.187-.412-.166.029.026a8.893,8.893,0,0,1,1.676.557c.086.064.282.49.08.076-.4-.812-.838-1.6-1.207-2.426-.447-1-.8-1.871-1.243-3.043-.187-.494-.37-.99-.535-1.492-.1-.3-.321-1.408-.184-.348a2.44,2.44,0,0,0-4.1-1.7c-9.743,7.65-19.669,15.057-29,23.221q-4.949,4.331-9.734,8.843c-2.258,2.118,1.141,5.507,3.394,3.394,9.547-8.955,19.592-17.236,29.943-25.236q4.4-3.4,8.788-6.828l-4.1-1.7a24.623,24.623,0,0,0,2.149,6.224c.706,1.663,1.574,4.6,3.569,5.129,1.825.487,3.977-1.019,5.49-1.85,2.613-1.435,5.163-2.989,7.707-4.541,3.172-1.935,6.324-3.9,9.49-5.844,2.629-1.613.22-5.767-2.422-4.145Z"/><path class="c" d="M155.361,62.406c8.083,1.831,14.767,7.175,20.2,13.227a81.578,81.578,0,0,1,13.173,20.44,2.419,2.419,0,0,0,3.284.861,2.455,2.455,0,0,0,.861-3.283,85.328,85.328,0,0,0-14.207-21.725c-5.9-6.491-13.337-12.178-22.037-14.149-3.008-.681-4.292,3.945-1.276,4.629Z"/><path class="c" d="M106.992,175.334c.364-3.633.644-7.27.75-10.92a2.42,2.42,0,0,0-2.4-2.4,2.448,2.448,0,0,0-2.4,2.4c-.106,3.65-.386,7.287-.75,10.92a2.408,2.408,0,0,0,2.4,2.4,2.466,2.466,0,0,0,2.4-2.4Z"/><path class="c" d="M160.7,164.511a109.306,109.306,0,0,0,.761,10.969,2.46,2.46,0,0,0,2.4,2.4c1.173-.052,2.558-1.064,2.4-2.4a109.306,109.306,0,0,1-.761-10.969,2.4,2.4,0,0,0-4.8,0Z"/><path class="d" d="M2.358,358.905C6.8,332.016,11.127,303.5,17.1,271.572c1.63-7.852,3.912-17.577,6.074-23.365,1.53-4.095,4.781-13.349,7.043-17.089,4.772-7.891,11.18-15.353,18.893-20.406,14.275-9.352,28.385-14.311,44.209-20.6l-.013-.2c-.081-1.325,5.64-11.868,7.495-16.658.124-.32.288-.678.617-.775.358-.106.713.154,1,.4,3.173,2.725,20.59,16.913,22.458,19.2.643,2.164,1.753,5.023,3.62,10.89,1.507,3.572,4.211,10.227,5.66,13.348,2.082-4.365,4.8-10.811,6.949-16,1.041-3.169,1.878-6.717,2.332-8.243,1.868-2.289,19.285-16.477,22.458-19.2.284-.244.638-.5,1-.4.328.1.492.455.616.775,2.093,5.4,9.107,18.132,7.157,16.681,16,6.375,30.243,11.339,44.65,20.778,7.714,5.053,14.121,12.515,18.893,20.406,2.263,3.74,5.513,12.994,7.043,17.089,2.163,5.788,4.445,15.513,6.074,23.365,5.973,31.926,10.815,59.778,15.26,86.667Z"/><path class="c" d="M213.534,259.378a361.893,361.893,0,0,0-3.307,44.6c-.147,10.743-.1,21.486-.045,32.23q.057,11.219.068,22.439c0,3.088,4.8,3.093,4.8,0,0-12.126-.105-24.252-.124-36.378-.018-12.246,0-24.51.761-36.736q.778-12.479,2.475-24.88a2.483,2.483,0,0,0-1.676-2.952,2.417,2.417,0,0,0-2.952,1.676Z"/><path class="c" d="M51.3,260.654c3.481,25.2,3.307,50.559,3.179,75.934q-.055,11.029-.067,22.06c0,3.088,4.8,3.093,4.8,0,0-12.241.109-24.482.125-36.722.016-12.3-.009-24.609-.792-36.885-.548-8.585-1.439-17.141-2.616-25.663a2.415,2.415,0,0,0-2.952-1.676,2.465,2.465,0,0,0-1.677,2.952Z"/><path class="c" d="M136.225,215.105c-.981-2.124-1.88-4.285-2.781-6.444-.968-2.319-2.093-4.636-2.861-7.029-.812-2.529-1.673-5.041-2.533-7.553-.5-1.454-.8-3.02-1.893-4.147-2.084-2.151-4.476-4.046-6.756-5.98-3.146-2.669-6.319-5.305-9.493-7.94q-1.92-1.593-3.839-3.187c-1.072-.893-2.306-2.287-3.659-2.66-2.072-.57-3.323.968-4,2.653-.22.544-.075.207-.321.77q-.333.765-.684,1.523c-.969,2.107-2,4.189-3.009,6.275-.873,1.794-1.757,3.586-2.543,5.421-.536,1.252-1.2,2.577-.8,3.967a17.889,17.889,0,0,0,1.715,3.47c1.031,1.855,2.117,3.68,3.225,5.49a114.723,114.723,0,0,0,9.424,13.838,3.712,3.712,0,0,0,4.55,1c1.6-.841,2.274-3,3.057-4.524q2.431-4.743,4.922-9.454c1.446-2.728-2.7-5.156-4.144-2.423q-2.015,3.8-3.983,7.625-.864,1.677-1.722,3.356l-.512,1c-.576,1.126-.441.232,1.028.073.555-.06.384.382.2-.042a2.821,2.821,0,0,0-.358-.463c-2.719-3.559-5.169-7.333-7.532-11.134-1.776-2.856-3.581-5.741-5.074-8.758-.085-.171-.156-.355-.25-.521-.162-.289.159.609.053.1-.059-.285.058.6.057.507,0-.281-.269.592-.047.334a2.388,2.388,0,0,0,.184-.6c.1-.273.207-.541.317-.808-.2.481.178-.393.238-.527.388-.861.793-1.714,1.2-2.566.983-2.05,1.993-4.087,2.972-6.138.472-.99.94-1.982,1.387-2.983a19.643,19.643,0,0,1,1.253-2.765l-.861.861.278-.173-1.211.328.355,0-1.212-.328a1.494,1.494,0,0,1,.614.41c.234.2.47.4.7.593q.978.819,1.96,1.632,2.591,2.151,5.182,4.3c3.67,3.052,7.347,6.1,10.932,9.253a29.159,29.159,0,0,1,3.222,3.033l-.617-1.059a189.466,189.466,0,0,0,9.522,24.812,2.421,2.421,0,0,0,3.284.861,2.457,2.457,0,0,0,.861-3.284Z"/><path class="c" d="M174.044,192.257c12.973,5.163,26.154,9.936,38.274,16.963a64.449,64.449,0,0,1,15.7,12.172,55.571,55.571,0,0,1,9.983,14.684,169.875,169.875,0,0,1,10.317,32.907c1.61,7.417,2.863,14.92,4.224,22.386q1.992,10.924,3.924,21.861,4.027,22.8,7.8,45.647a2.42,2.42,0,0,0,2.953,1.676A2.457,2.457,0,0,0,268.9,357.6c-4.757-28.772-9.671-57.536-15.168-86.176a192.2,192.2,0,0,0-4.86-19.957c-1.525-4.986-3.441-9.908-5.413-14.732a51.441,51.441,0,0,0-3.177-6.829,74.482,74.482,0,0,0-6.118-8.71,62.086,62.086,0,0,0-15.179-13.552c-13.6-8.623-28.771-14.091-43.66-20.017a2.417,2.417,0,0,0-2.952,1.676,2.459,2.459,0,0,0,1.676,2.953Z"/><path class="c" d="M93.1,187.628c-13.213,5.259-26.668,10.112-39.035,17.225a69.64,69.64,0,0,0-16.776,12.835,59.847,59.847,0,0,0-10.626,15.1,165.433,165.433,0,0,0-10.921,33.679c-1.664,7.536-2.937,15.162-4.274,22.761q-1.944,11.049-3.775,22.116C5.1,326.974,2.628,342.63.044,358.267A2.473,2.473,0,0,0,1.72,361.22a2.421,2.421,0,0,0,2.953-1.677c4.7-28.473,9.1-57,14.375-85.373,1.247-6.71,2.794-13.41,4.7-19.965,1.433-4.932,3.3-9.763,5.184-14.539a56.821,56.821,0,0,1,3-6.725,59.273,59.273,0,0,1,5.2-7.69A58.212,58.212,0,0,1,51.863,211.79c13.263-8.407,28-13.757,42.513-19.533a2.473,2.473,0,0,0,1.676-2.953,2.417,2.417,0,0,0-2.952-1.676Z"/><path class="c" d="M136.225,217.528c1.983-4.175,3.782-8.437,5.573-12.7a57.835,57.835,0,0,0,2.387-6.388c.548-1.9,1.008-3.828,1.562-5.728l-.617,1.059a24.837,24.837,0,0,1,2.672-2.547c1.617-1.437,3.264-2.84,4.915-4.237,3.694-3.129,7.425-6.215,11.15-9.307q1.122-.931,2.242-1.865.438-.366.875-.733a2.756,2.756,0,0,1,.76-.534l-1.211.328.355,0-1.211-.328.278.173-.861-.861a39.564,39.564,0,0,1,2.3,5.04c.866,1.832,1.761,3.65,2.646,5.473.429.885.857,1.77,1.275,2.66q.247.528.49,1.059c.082.179.162.36.243.54.047.1.3.707.094.207.177.425.292.886.476,1.3.1.226-.038.558-.022-.294,0,.229-.057.219.072-.5-.079.44-.007.027.06-.1a154.648,154.648,0,0,1-11.935,19.2q-.465.638-.942,1.265c-.048.063-.218.26-.268.347q-.135.172-.271.343.836-.582,1.723.361c.1-.342-.832-1.627-1.027-2.008q-.528-1.031-1.057-2.06-2.2-4.28-4.449-8.532c-1.447-2.73-5.591-.308-4.145,2.423q2.2,4.161,4.356,8.349c1.251,2.435,2.463,6.663,5.99,5.95,2.294-.463,3.733-3.3,5-5.081,1.443-2.025,2.823-4.094,4.167-6.186,2.214-3.445,4.39-6.942,6.309-10.562a7.4,7.4,0,0,0,1.214-3.178c.007-1.4-.839-2.867-1.4-4.1-1.742-3.854-3.722-7.595-5.456-11.453-.146-.326-.455-1.032-.5-1.15-.064-.154-.363-.971-.537-1.3a3.152,3.152,0,0,0-4.826-1.077c-.961.676-1.835,1.514-2.737,2.265-5.685,4.73-11.431,9.4-16.985,14.279-.979.86-1.985,1.713-2.884,2.659a5.214,5.214,0,0,0-1.226,2.4c-.392,1.448-.763,2.9-1.173,4.345a79.32,79.32,0,0,1-3.63,9.455c-1.275,2.986-2.572,5.965-3.965,8.9a2.467,2.467,0,0,0,.861,3.284,2.423,2.423,0,0,0,3.284-.861Z"/><path class="c" d="M131.752,216.316q0,31.72.224,63.441.162,29.431.353,58.862c.037,6.676.081,13.353.081,20.029,0,3.088,4.8,3.093,4.8,0,0-14.507-.133-29.014-.223-43.52q-.2-32.22-.353-64.44-.071-17.187-.082-34.372c0-3.088-4.8-3.094-4.8,0Z"/><path class="c" d="M124.1,141.357a22.474,22.474,0,0,0,10.829,2.5c3.833-.024,7.756-.758,10.833-3.155a2.413,2.413,0,0,0,0-3.394,2.462,2.462,0,0,0-3.394,0c.7-.544.053-.056-.126.059-.222.142-.451.274-.684.4-.143.075-.92.416-.365.193-.311.125-.625.241-.944.343a16.955,16.955,0,0,1-5.676.758,17.726,17.726,0,0,1-5.418-.729c-.345-.1-.683-.227-1.023-.344-.112-.039-.22-.088-.331-.129.6.22.093.041-.024-.013q-.635-.3-1.254-.626a2.452,2.452,0,0,0-3.284.861,2.426,2.426,0,0,0,.861,3.283Z"/><path class="c" d="M133.925,115.567a51.908,51.908,0,0,1,1.223,5.593l-.086-.638a3.379,3.379,0,0,1,.021.772l.086-.638a1.975,1.975,0,0,1-.085.347l.242-.574a1.4,1.4,0,0,1-.123.224l.375-.486a1.191,1.191,0,0,1-.182.18l.485-.375a3.521,3.521,0,0,1-.442.234l.573-.242a3.2,3.2,0,0,1-.747.218l.638-.086a2.98,2.98,0,0,1-.7,0l.638.086c-.265-.037-.524-.1-.788-.137a2.657,2.657,0,0,0-1.85.242,2.4,2.4,0,0,0-.861,3.284,2.3,2.3,0,0,0,1.435,1.1c.56.075,1.1.219,1.672.244a5.265,5.265,0,0,0,2.412-.566,3.381,3.381,0,0,0,1.9-2.24,5.805,5.805,0,0,0-.027-2.465c-.3-1.8-.721-3.588-1.184-5.355a2.4,2.4,0,0,0-4.629,1.276Z"/><path class="c" d="M103.9,99.854c-.934,3.035-.325,10.016,5.425,10.611,7.6-.046,8-8.487,5.445-12.455C112.68,94.76,106.521,93.409,103.9,99.854Z"/><path class="c" d="M164.759,99.854c.935,3.035.326,10.017-5.424,10.611-7.6-.046-8-8.487-5.446-12.456C155.984,94.76,162.142,93.409,164.759,99.854Z"/><path class="c" d="M176.326,123.1c4.947-9.481,9.038-19.749,16.4-27.71,2.094-2.266-1.292-5.669-3.394-3.395-7.668,8.3-11.992,18.8-17.147,28.682-1.427,2.736,2.714,5.165,4.145,2.423Z"/><path class="c" d="M97.245,120.676c-5.626-10-10.118-20.814-18.358-29.076-2.184-2.19-5.579,1.2-3.394,3.394,7.927,7.949,12.193,18.48,17.608,28.105,1.515,2.692,5.663.275,4.144-2.423Z"/><path class="a" d="M134.13,109.744c-3.672.029-26.543,6.354-35.089,8.949-1.7.516-3.569.922-4.723,2.217-1.265,1.42-1.239,3.445-1.446,5.3-.477,4.258-.19,22.033-.048,26.777.051,1.7,1.8,5.12,3.037,6.345,5.646,5.573,25.627,13.9,38.3,15.374,12.681-1.482,30.956-9.718,38.291-15.374,1.394-1.076,2.987-4.642,3.037-6.345.142-4.744.429-22.519-.047-26.777-.208-1.85-.181-3.875-1.447-5.3-1.154-1.3-3.023-1.7-4.722-2.217C160.7,116.092,137.748,109.744,134.13,109.744Z"/><path class="c" d="M134.13,107.344a38.942,38.942,0,0,0-7.992,1.487c-4.187.993-8.35,2.092-12.5,3.218q-6.071,1.645-12.109,3.4c-1.891.552-3.856,1.025-5.689,1.744a7.711,7.711,0,0,0-5.131,6.756,85.942,85.942,0,0,0-.492,10.422c-.024,4.319.019,8.637.09,12.955q.039,2.452.1,4.906a12.971,12.971,0,0,0,1.731,5.914c1.893,3.517,5.315,5.666,8.707,7.577A98.66,98.66,0,0,0,129.2,176.311c1.088.221,2.182.413,3.281.569a13.279,13.279,0,0,0,4.241-.134,65.242,65.242,0,0,0,7.215-1.628,111.493,111.493,0,0,0,15.517-5.738,82.423,82.423,0,0,0,12.395-6.68,12.291,12.291,0,0,0,4.47-4.64,13.572,13.572,0,0,0,1.592-6c.2-7.768.378-15.578.086-23.345a50.672,50.672,0,0,0-.436-5.088,7.706,7.706,0,0,0-5.445-6.572c-3.62-1.323-7.455-2.236-11.163-3.278-7.8-2.191-15.656-4.508-23.624-6.007a18.779,18.779,0,0,0-3.2-.431c-3.089-.036-3.091,4.764,0,4.8.271,0,1.376.173.525.023.586.1,1.173.191,1.757.3,1.48.289,2.951.626,4.418.973,3.937.933,7.851,1.96,11.757,3.014s7.809,2.14,11.7,3.265c1.513.438,3.021.889,4.53,1.338a8.836,8.836,0,0,1,3.134,1.2,3.966,3.966,0,0,1,.981,2.818c.693,7.185.4,14.495.286,21.7q-.039,2.418-.093,4.836a9.622,9.622,0,0,1-1.865,5.541c.068-.081.119-.162-.154.153-.484.559.175-.112-.145.155a23.119,23.119,0,0,1-2.21,1.538c-1.722,1.12-3.508,2.142-5.321,3.107-8.67,4.615-18.248,8.438-27.982,10.006a15.047,15.047,0,0,1-5.62-.57c-2.283-.487-4.542-1.087-6.778-1.76a107.639,107.639,0,0,1-13.7-5.139,56.52,56.52,0,0,1-10.45-5.857c-.348-.261.41.336-.135-.1q-.206-.165-.407-.336c-.225-.191-.449-.386-.66-.592a8.939,8.939,0,0,1-1.57-2.333,7.25,7.25,0,0,1-.935-3.9c-.178-7.484-.337-15-.084-22.481.05-1.449.139-2.9.315-4.341a3.586,3.586,0,0,1,.9-2.4,8.851,8.851,0,0,1,3.362-1.3q5.032-1.506,10.094-2.916c7.349-2.052,14.744-4.2,22.242-5.645.525-.1,1.054-.181,1.581-.275.341-.061-.619.047.08,0,.152-.011.3-.023.454-.026C137.215,112.085,137.226,107.285,134.13,107.344Z"/></svg>