<?xml version="1.0" encoding="iso-8859-1"?>
<!-- Uploaded to: SVG Repo, www.svgrepo.com, Generator: SVG Repo Mixer Tools -->
<svg height="200px" width="200px" version="1.1" id="Layer_1" xmlns="http://www.w3.org/2000/svg" xmlns:xlink="http://www.w3.org/1999/xlink" 
	 viewBox="0 0 512 512" xml:space="preserve">
<path style="fill:#FFD41D;" d="M219.628,239.221c0,9.266-7.513,16.779-16.78,16.779H27.229c-9.267,0-16.78-7.512-16.78-16.779V63.6
	c0-9.265,7.513-16.779,16.78-16.779h175.62c9.266,0,16.78,7.514,16.78,16.78v175.62H219.628z"/>
<path style="fill:#10BAFC;" d="M219.628,448.4c0,9.267-7.513,16.78-16.78,16.78H27.229c-9.266,0-16.78-7.513-16.78-16.78V272.78
	c0-9.266,7.513-16.78,16.78-16.78h175.62c9.266,0,16.78,7.514,16.78,16.78V448.4H219.628z"/>
<path style="fill:#F3437F;" d="M372.454,460.265c-6.553,6.553-17.177,6.553-23.729,0L224.543,336.083
	c-6.553-6.553-6.553-17.177,0-23.73L348.726,188.17c6.552-6.553,17.176-6.553,23.729,0l124.183,124.183
	c6.553,6.553,6.553,17.177,0,23.73L372.454,460.265z"/>
<path d="M56.943,210.466L106.03,84.162c1.961-4.413,5.056-6.618,9.284-6.618c4.351,0,7.446,2.206,9.285,6.618l49.271,126.764
	c1.99,4.984-0.223,10.901-5.263,12.985c-4.938,2.041-10.609-0.429-12.754-5.263l-17.006-43.664H91.782l-17.098,43.664
	c-2.167,4.871-8.033,7.367-12.977,5.2C56.544,221.587,54.655,215.45,56.943,210.466z M131.309,155.496l-15.995-41.275
	l-15.995,41.275H131.309z"/>
<path d="M108.513,287.77c20.717,0,38.056,17.34,38.056,38.056c0,9.316-2.881,17.435-8.641,24.36c3.738,2.207,7.016,4.75,9.836,7.63
	c26.853,27.456,7.481,77.033-32.173,77.033H80.107c-5.284,0-9.744-4.466-9.744-9.744V297.514c0-5.278,4.46-9.744,9.744-9.744
	H108.513z M89.852,307.257v37.23h18.661c7.705,0,14.599-4.987,17.378-12.121c2.86-7.342,0.379-15.757-5.594-20.756
	c-3.301-2.763-7.47-4.353-11.783-4.353H89.852z M89.852,363.974v51.386h25.739c10.673,0,20.267-6.776,24.035-16.731
	c3.789-10.01,0.661-21.649-7.478-28.547c-4.608-3.905-10.515-6.108-16.557-6.108H89.852z"/>
<path d="M417.795,324.054c3.729-3.729,10.057-3.722,13.78,0c1.821,1.821,2.753,4.183,2.796,7.085
	c-1.951,17.377-8.992,32.133-21.126,44.265c-14.388,14.388-31.721,21.58-52,21.58c-20.281-0.001-37.613-7.193-52.001-21.58
	c-14.343-14.343-21.516-31.655-21.514-51.936c-0.001-20.366,7.171-37.722,21.514-52.066c12.307-12.307,27.474-19.369,45.5-21.191
	c5.145-0.092,9.486,4.829,9.49,9.815c0.004,5.421-4.424,9.361-9.62,9.685c-5.893,0.694-11.516,2.329-16.868,4.908
	c-5.351,2.579-10.259,6.1-14.722,10.563c-10.574,10.574-15.86,23.358-15.86,38.35c0,14.821,5.288,27.518,15.86,38.091
	c10.617,10.617,23.336,15.925,38.157,15.925c14.905,0,27.668-5.308,38.285-15.925c9.057-9.057,14.235-19.826,15.536-32.306
	C415.346,327.414,416.279,325.658,417.795,324.054C418.747,323.102,416.279,325.658,417.795,324.054
	C418.747,323.102,416.279,325.658,417.795,324.054z"/>
<path d="M504.025,304.965L379.843,180.783c-5.143-5.142-11.98-7.974-19.253-7.974c-7.272,0-14.11,2.832-19.252,7.974
	l-111.261,111.26V272.78c0-6.327-2.175-12.151-5.809-16.779c3.633-4.628,5.809-10.452,5.809-16.779V63.6
	c0-15.014-12.215-27.229-27.229-27.229H27.229C12.215,36.372,0,48.587,0,63.6v175.621c0,6.327,2.175,12.151,5.809,16.779
	C2.175,260.628,0,266.453,0,272.78V448.4c0,15.014,12.215,27.229,27.229,27.229h175.62c15.014,0,27.229-12.215,27.229-27.229
	v-92.004l111.259,111.258c5.143,5.143,11.98,7.976,19.253,7.976s14.11-2.833,19.252-7.975l124.183-124.182
	c5.143-5.143,7.975-11.981,7.975-19.254C512,316.946,509.168,310.108,504.025,304.965z M20.898,63.6c0-3.491,2.84-6.331,6.331-6.331
	H46.15v33.352c0,5.771,4.678,10.449,10.449,10.449s10.449-4.678,10.449-10.449V57.27h135.801c3.491,0,6.331,2.84,6.331,6.331
	v175.621c0,3.49-2.84,6.33-6.331,6.33H27.229c-3.491,0-6.331-2.839-6.331-6.33V63.6z M202.849,454.73H27.229
	c-3.491,0-6.331-2.84-6.331-6.331V272.78c0-3.491,2.84-6.331,6.331-6.331h175.62c3.491,0,6.331,2.84,6.331,6.331V448.4
	C209.179,451.891,206.34,454.73,202.849,454.73z M489.248,328.695L365.064,452.878c-1.194,1.195-2.784,1.854-4.475,1.854
	s-3.28-0.658-4.475-1.855L231.932,328.696c-1.193-1.193-1.852-2.779-1.854-4.467v-0.021c0.003-1.688,0.66-3.273,1.854-4.466
	L356.115,195.56c1.195-1.195,2.785-1.854,4.475-1.854c1.691,0,3.281,0.658,4.475,1.854l124.184,124.183
	c1.195,1.194,1.854,2.785,1.854,4.475C491.102,325.91,490.444,327.499,489.248,328.695z"/>
<path d="M56.555,135.119c0.015,0,0.029,0,0.044,0c5.75,0,10.424-4.65,10.448-10.406l0.001-0.245
	c0.024-5.77-4.635-10.469-10.406-10.492c-0.015,0-0.029,0-0.044,0c-5.75,0-10.424,4.65-10.448,10.405l-0.001,0.245
	C46.126,130.397,50.784,135.095,56.555,135.119z"/>
</svg>